<?xml version="1.0" standalone="no"?><!DOCTYPE svg PUBLIC "-//W3C//DTD SVG 1.1//EN" "http://www.w3.org/Graphics/SVG/1.1/DTD/svg11.dtd"><svg t="1594971948005" class="icon" viewBox="0 0 1024 1024" version="1.1" xmlns="http://www.w3.org/2000/svg" p-id="7542" xmlns:xlink="http://www.w3.org/1999/xlink" width="32" height="32"><defs><style type="text/css"></style></defs><path d="M656.359693 534.384518a95.100701 95.100701 0 0 0-3.4403 67.875107 92.05165 92.05165 0 0 0 15.892839 29.303266c7.136937 8.83685 15.569046 16.621374 22.004433 26.01137 12.020815 17.538787 12.142237 37.991711 5.248144 57.594679-7.690084 22.058398-22.935337 40.177314-33.391152 60.886574-5.652886 11.238315-6.840127 21.208441-7.231377 33.903825a88.854194 88.854194 0 0 0 7.109954 37.708393c0.499181 1.214224 0.917413 2.833189-0.107931 3.656162-1.430086 1.133275-3.251421-0.809482-4.047412-2.468921a93.61665 93.61665 0 0 1-4.533102-60.279463c5.544955-21.896501 20.560855-38.490892 31.030162-58.012911 12.439048-23.421027 17.795123-50.363302 0.876939-73.001829-7.029006-9.443962-15.784908-17.376891-22.77344-26.820853a94.817382 94.817382 0 0 1-14.098487-27.778741 99.256044 99.256044 0 0 1 3.737111-70.006744c1.025344-2.482413 4.735473-0.957888 3.723619 1.430086z" fill="#001616" p-id="7543"></path><path d="M828.523127 9.934306c-119.115348-39.327357-252.909312 41.620891-298.847443 180.784422-42.281969 128.087112 4.641033 260.788274 105.232723 311.77218-11.589091 6.5703-36.264815 24.986026 17.390383 40.474124 4.870386 0.98487 54.85593 19.454562 41.526451-21.437794 110.278497 17.026115 225.305959-61.412738 267.129221-188.353083 46.005588-139.217496-13.315987-283.925982-132.431335-323.239849z" fill="#E54C91" p-id="7544"></path><path d="M364.37936 711.796096a95.100701 95.100701 0 0 1 12.911246 66.714849 92.05165 92.05165 0 0 1-11.629565 31.246024c-5.828274 9.754264-13.086634 18.64508-18.145899 28.844559-9.443962 19.03633-6.637756 39.313866 2.873663 57.756575 10.712152 20.763226 28.399344 36.561626 41.593908 55.597956 7.16392 10.334393 10.887539 19.832321 10.941505 32.527704a107.499274 107.499274 0 0 1-6.745687 37.047315c-0.890431 2.45543 3.022068 3.507757 3.899007 1.07931 6.340946-17.444348 10.536764-40.244771 3.710128-58.188299-3.602197-9.443962-10.590729-17.943528-16.864218-25.768526-7.717066-9.632842-16.09521-18.73952-23.367061-28.723137-15.609521-21.451286-24.675724-47.368217-11.103402-72.165363 5.639395-10.30741 13.194565-19.414088 18.793485-29.681025a94.817382 94.817382 0 0 0 10.064566-29.478654 99.256044 99.256044 0 0 0-13.491375-68.806011c-1.349137-2.199094-4.883878-0.175388-3.494266 2.037197z" fill="#001616" p-id="7545"></path><path d="M495.110782 377.452847C451.560624 237.520307 319.156272 154.305508 199.393338 191.582176S17.839908 372.515003 61.390066 512.447543c40.096366 128.788664 155.434129 209.453593 266.92685 192.481444-5.612412 12.142237-14.975426 41.418521 37.654427 22.759949 4.533102-2.023706 55.948731-16.068227 21.316372-41.580417 99.60682-50.336319 147.541675-181.027267 107.823067-308.655672z" fill="#7BEFEF" p-id="7546"></path><path d="M133.879222 296.140331a27.48193 27.48193 0 0 0-2.334007 2.833189c-45.776235 62.262695-40.811409 146.826632-18.779994 217.07622 2.374482 7.55517 5.936205 8.688445 12.573961 4.195817 7.541678-5.09974 4.519611-16.108701 3.224439-23.636888-10.078057-58.201791-25.282836-125.11901 14.651633-176.73701 3.764094-4.856895 7.190903-10.617712 6.597282-16.742796s-7.136937-11.791462-12.776332-9.349523a9.91616 9.91616 0 0 0-3.156982 2.360991z" fill="#FFF3F3" p-id="7547"></path><path d="M815.045243 24.046284c-4.991809-0.674569-10.7931 0.323793-15.0159 0.553147A327.975321 327.975321 0 0 0 766.53026 28.093697a286.961541 286.961541 0 0 0-64.043556 17.619735 213.487514 213.487514 0 0 0-51.186276 29.262792c-8.216247 6.448877-16.513443 12.884263-23.65038 20.547364-4.843404 5.207671-18.388744 22.260768-6.327455 27.697792a10.671677 10.671677 0 0 0 9.443962-0.957887 34.686325 34.686325 0 0 0 7.420257-6.421895c42.511322-43.860459 102.534448-66.72834 162.840893-70.478941 5.720343-0.350776 11.292281-0.134914 16.756288-2.104655 6.286981-2.266551 9.443962-6.840127 6.489351-13.221547-1.794353-3.872025-5.261636-5.450515-9.228101-5.990171z" fill="#F8FFFF" p-id="7548"></path><path d="M600.181609 153.603956m-13.491375 0a13.491375 13.491375 0 1 0 26.98275 0 13.491375 13.491375 0 1 0-26.98275 0Z" fill="#F8FFFF" p-id="7549"></path><path d="M136.887799 551.801883m-13.491375 0a13.491375 13.491375 0 1 0 26.98275 0 13.491375 13.491375 0 1 0-26.98275 0Z" fill="#FFF3F3" p-id="7550"></path></svg>