<?xml version="1.0" standalone="no"?><!DOCTYPE svg PUBLIC "-//W3C//DTD SVG 1.1//EN" "http://www.w3.org/Graphics/SVG/1.1/DTD/svg11.dtd"><svg t="1594972004024" class="icon" viewBox="0 0 1024 1024" version="1.1" xmlns="http://www.w3.org/2000/svg" p-id="7689" xmlns:xlink="http://www.w3.org/1999/xlink" width="32" height="32"><defs><style type="text/css"></style></defs><path d="M385.9 535.2c-100.9 0-183-99.7-183-222.3 0-59.1 18.9-114.8 53.1-156.7 34.6-42.3 80.7-65.6 129.9-65.6 6.4 0 12 0.3 17.4 1l-1.6 13.1c-4.8-0.6-10-0.9-15.8-0.9-93.7 0-169.8 93.8-169.8 209.1S292.3 522 385.9 522c41.6 0 81.7-18.8 112.8-52.9l9.7 8.9c-33.6 36.9-77.1 57.2-122.5 57.2z" fill="#9ACAE8" p-id="7690"></path><path d="M520.2 481.1c-100.9 0-183-99.7-183-222.3s82.1-222.3 183-222.3 183 99.7 183 222.3-82.1 222.3-183 222.3z m0-431.4c-93.7 0-169.8 93.8-169.8 209.1s76.2 209.1 169.8 209.1c93.7 0 169.8-93.8 169.8-209.1S613.8 49.7 520.2 49.7z" fill="#9ACAE8" p-id="7691"></path><path d="M628.2 562.6c-6.9 0-13.8-0.5-20.6-1.4-46.5-6.2-87.9-33.5-116.5-77-1.9-2.9-3.8-6-5.9-9.5l11.4-6.6c2 3.4 3.7 6.2 5.5 8.9 26.5 40.2 64.5 65.4 107.2 71.1 44.7 6 89.7-9.7 126.7-44.2 37.4-34.9 62.1-84.7 69.6-140.3 15.4-114.3-47.5-217.5-140.3-230-2.1-0.3-4.4-0.5-6.5-0.8l1.6-13.1c2.1 0.3 4.3 0.5 6.5 0.8 100.2 13.6 168.2 123.5 151.8 245-7.9 58.6-34.1 111.2-73.6 148.2-34.4 31.9-75.2 48.9-116.9 48.9zM500.7 987.5l-13.2-0.1c0.4-37.8-1.4-76.2-5.5-114.3-12.7-117.4-47-232.4-102-341.6l11.8-5.9c55.7 110.7 90.4 227.1 103.3 346.2 4.1 38.5 6 77.4 5.6 115.7z" fill="#9ACAE8" p-id="7692"></path><path d="M487.4 966.4c-0.3-30.5 0.7-59.1 3.1-87.4 9-110.7 37.6-220 85-325l12 5.4c-46.8 103.6-75 211.5-83.9 320.6-2.3 28-3.3 56.2-3 86.2l-13.2 0.2z" fill="#9ACAE8" p-id="7693"></path><path d="M487.4 483.2h13.2v504.3h-13.2z" fill="#9ACAE8" p-id="7694"></path><path d="M556 791s-13.4-8.3-58.9 25.8l-1.7 1.7h-6.2l-1.7-1.7C442 782.7 428.6 791 428.6 791c-41 6.3-27.8 50.7-27.8 50.7 21.5 48.5 72.9 4 72.9 4l-1.7 4.9-9.8 15.9c-8.8 14.5 7.5 6.5-20.3 48-0.7 0.9 4.5 0 4.5 0h15.9c8.4-3 17.1-24.4 16.2-29.1-2.8-12.6 2.6-29.4 7.9-42 0.9-2.2 1.4-4.2 1.7-5.9h8.7c0.3 1.7 0.7 3.7 1.7 5.9 5.4 12.6 10.7 29.4 7.9 42-1.1 4.6 7.8 26 16.2 29.1h15.9s5 0.9 4.5 0c-27.8-41.5-11.5-33.5-20.4-48l-9.8-15.9-1.7-4.9s51.4 44.4 72.9-4c-0.2 0 13-44.4-28-50.7z m-150.9 31.7c10.8-33.9 73.1 0 73.1 0l4.3 3.2v2.5c-42.6 30.7-86.2 22-77.4-5.7z m96.2 5.2s-0.3 0.1-0.5 0.3v-1.3l5.5-4s62.3-33.9 73.1 0c8.9 27.6-35.3 36.3-78.1 5zM396.3 216.5c-2 0-3.9-1.4-4.5-3.4-10.7-40.9 19.9-87.2 21.2-89.1 1.4-2.1 4.3-2.7 6.4-1.3 2.1 1.4 2.7 4.3 1.3 6.4-0.3 0.4-29.5 44.8-19.9 81.7 0.6 2.5-0.8 5-3.3 5.6-0.4 0-0.8 0.1-1.2 0.1zM241.8 277.4h-0.3c-2.5-0.2-4.5-2.4-4.3-4.9 4.4-62.9 31.3-86.2 32.5-87.1 2-1.6 4.9-1.4 6.5 0.6 1.6 1.9 1.4 4.8-0.5 6.5-0.3 0.3-25.1 22.2-29.2 80.7-0.3 2.3-2.3 4.2-4.7 4.2zM779.9 328.5c-0.3 0-0.6 0-0.9-0.1-2.5-0.5-4.1-2.9-3.6-5.4 6.6-33.9-10.3-67.3-10.5-67.6-1.2-2.3-0.3-5 2-6.2 2.3-1.2 5-0.3 6.2 2 0.8 1.5 18.6 36.5 11.4 73.6-0.5 2.2-2.5 3.7-4.6 3.7z" fill="#EFE925" p-id="7695"></path></svg>