<?xml version="1.0" standalone="no"?><!DOCTYPE svg PUBLIC "-//W3C//DTD SVG 1.1//EN" "http://www.w3.org/Graphics/SVG/1.1/DTD/svg11.dtd"><svg t="1596441092967" class="icon" viewBox="0 0 1024 1024" version="1.1" xmlns="http://www.w3.org/2000/svg" p-id="1830" width="32" height="32" xmlns:xlink="http://www.w3.org/1999/xlink"><defs><style type="text/css"></style></defs><path d="M746.666667 277.333333c117.824 0 213.333333 95.509333 213.333333 213.333334v256c0 117.824-95.509333 213.333333-213.333333 213.333333H277.333333C159.509333 960 64 864.490667 64 746.666667V490.666667c0-117.824 95.509333-213.333333 213.333333-213.333334h469.333334z m0 64H277.333333a149.333333 149.333333 0 0 0-149.333333 149.333334v256a149.333333 149.333333 0 0 0 149.333333 149.333333h469.333334a149.333333 149.333333 0 0 0 149.333333-149.333333V490.666667a149.333333 149.333333 0 0 0-149.333333-149.333334z" fill="#ffffff" p-id="1831"></path><path d="M512 448a170.666667 170.666667 0 1 1 0 341.333333 170.666667 170.666667 0 0 1 0-341.333333z m0 64a106.666667 106.666667 0 1 0 0 213.333333 106.666667 106.666667 0 0 0 0-213.333333zM245.333333 192v106.666667a32 32 0 0 0 64 0V192a32 32 0 0 0-64 0zM576 202.666667h234.666667a32 32 0 0 0 0-64H576a32 32 0 0 0 0 64z" fill="#ffffff" p-id="1832"></path></svg>